# xmcd
#
# Track frame offsets:
# 150
# 25350
# 46775
# 70487
# 92087
# 115025
# 151400
# 185625
# 209312
# 233300
# 262650
# 301800
#
# Disc length: 4259 seconds
#
#
# Revision: 4
# Processed by: cddbd v1.5.1PL2 Copyright (c) Steve Scherf et al.
# Submitted via: FreeRIP 2.945 
#
DISCID=9010a10c
DTITLE=Memphis La Blusera - En vivo Teatro Gran Rex
DYEAR=1994
DGENRE=Blues
TTITLE0=No Se Detiene
TTITLE1=La Bifurcada
TTITLE2=Matadero Blues
TTITLE3=Sopa de Letras
TTITLE4=Blues Del Estibador
TTITLE5=Eugenia
TTITLE6=Lo Mismo Boogie
TTITLE7=Montón De Nada
TTITLE8=Moscato, Pizza Y Fainá
TTITLE9=Tonto Rompecabezas
TTITLE10=Potpourri
TTITLE11=Locura
EXTD=
EXTT0=
EXTT1=
EXTT2=
EXTT3=
EXTT4=
EXTT5=
EXTT6=
EXTT7=Grabado durante prueba de sonido (2-7-94)
EXTT8=
EXTT9=
EXTT10=Perro llorón - Boogie del preso - Boogie mamá
EXTT11=
PLAYORDER=
